<?xml version="1.0" encoding="UTF-8"?>
<svg width="128" height="128" viewBox="0 0 128 128" fill="none" xmlns="http://www.w3.org/2000/svg" role="img" aria-labelledby="title desc">
  <title id="title">Grayscale Vintage Stopwatch Icon</title>
  <desc id="desc">A small, monochrome stopwatch with top ring, crown, metal case, ticks, and a central hand.</desc>

  <!-- ====== DEFS ====== -->
  <defs>
    <!-- Soft shadow (subtle, grayscale) -->
    <filter id="s" x="-30%" y="-30%" width="160%" height="160%">
      <feOffset dx="0" dy="1" result="o"/>
      <feGaussianBlur in="o" stdDeviation="1.2" result="b"/>
      <feColorMatrix in="b" type="matrix"
        values="0 0 0 0 0
                0 0 0 0 0
                0 0 0 0 0
                0 0 0 .25 0"/>
      <feBlend in="SourceGraphic" mode="normal"/>
    </filter>

    <!-- Case & dial grayscale gradients -->
    <linearGradient id="gMetal" x1="0" y1="0" x2="0" y2="1">
      <stop offset="0%"  stop-color="#F2F2F2"/>
      <stop offset="50%" stop-color="#D9D9D9"/>
      <stop offset="100%" stop-color="#F2F2F2"/>
    </linearGradient>

    <radialGradient id="gRim" cx="50%" cy="50%" r="50%">
      <stop offset="70%" stop-color="#D0D0D0"/>
      <stop offset="100%" stop-color="#A3A3A3"/>
    </radialGradient>

    <radialGradient id="gDial" cx="50%" cy="45%" r="65%">
      <stop offset="0%" stop-color="#FFFFFF"/>
      <stop offset="100%" stop-color="#EDEDED"/>
    </radialGradient>

    <linearGradient id="gGlass" x1="0" y1="0" x2="1" y2="1">
      <stop offset="0%" stop-color="#FFFFFF" stop-opacity=".55"/>
      <stop offset="60%" stop-color="#FFFFFF" stop-opacity=".10"/>
      <stop offset="100%" stop-color="#FFFFFF" stop-opacity="0"/>
    </linearGradient>

    <style>
      .tick { stroke:#222; stroke-linecap:round; }
    </style>
  </defs>

  <!-- ====== WATCH GROUP (center at 64,68) ====== -->
  <g transform="translate(64 68)" filter="url(#s)">

    <!-- Top ring -->
    <g transform="translate(0 -44)">
      <circle r="7.5" fill="url(#gRim)"/>
      <circle r="5.5" fill="url(#gMetal)" stroke="#8C8C8C" stroke-width="1"/>
    </g>

    <!-- Crown -->
    <g transform="translate(0 -32)">
      <rect x="-12" y="-6.5" width="24" height="13" rx="3" fill="url(#gMetal)" stroke="#8C8C8C" stroke-width="1"/>
      <!-- simple knurl -->
      <g opacity=".35">
        <rect x="-9" y="-4" width="2" height="9" rx="1" fill="#9A9A9A"/>
        <rect x="-5" y="-4" width="2" height="9" rx="1" fill="#9A9A9A"/>
        <rect x="-1" y="-4" width="2" height="9" rx="1" fill="#9A9A9A"/>
        <rect x="3"  y="-4" width="2" height="9" rx="1" fill="#9A9A9A"/>
        <rect x="7"  y="-4" width="2" height="9" rx="1" fill="#9A9A9A"/>
      </g>
    </g>

    <!-- Case & dial -->
    <circle r="44" fill="url(#gMetal)"/>
    <circle r="41" fill="url(#gRim)"/>
    <circle r="39" fill="#F5F5F5"/>
    <circle r="37" fill="url(#gDial)" stroke="#BFBFBF" stroke-width="1"/>

    <!-- Major ticks (12) -->
    <g id="maj">
      <line class="tick" x1="0" y1="-31" x2="0" y2="-35" stroke-width="2"/>
    </g>
    <g>
      <use href="#maj" transform="rotate(0)"/>
      <use href="#maj" transform="rotate(30)"/>
      <use href="#maj" transform="rotate(60)"/>
      <use href="#maj" transform="rotate(90)"/>
      <use href="#maj" transform="rotate(120)"/>
      <use href="#maj" transform="rotate(150)"/>
      <use href="#maj" transform="rotate(180)"/>
      <use href="#maj" transform="rotate(210)"/>
      <use href="#maj" transform="rotate(240)"/>
      <use href="#maj" transform="rotate(270)"/>
      <use href="#maj" transform="rotate(300)"/>
      <use href="#maj" transform="rotate(330)"/>
    </g>

    <!-- Minor ticks (12, between majors) -->
    <g id="min">
      <line class="tick" x1="0" y1="-32" x2="0" y2="-34" stroke-width="1"/>
    </g>
    <g>
      <use href="#min" transform="rotate(15)"/>
      <use href="#min" transform="rotate(45)"/>
      <use href="#min" transform="rotate(75)"/>
      <use href="#min" transform="rotate(105)"/>
      <use href="#min" transform="rotate(135)"/>
      <use href="#min" transform="rotate(165)"/>
      <use href="#min" transform="rotate(195)"/>
      <use href="#min" transform="rotate(225)"/>
      <use href="#min" transform="rotate(255)"/>
      <use href="#min" transform="rotate(285)"/>
      <use href="#min" transform="rotate(315)"/>
      <use href="#min" transform="rotate(345)"/>
    </g>

    <!-- Hand (seconds) -->
    <g>
      <line x1="0" y1="6" x2="0" y2="-29" stroke="#111" stroke-width="2" stroke-linecap="round"/>
      <line x1="0" y1="6" x2="0" y2="12" stroke="#111" stroke-width="2" stroke-linecap="round"/>
      <circle r="2.5" fill="#111"/>
    </g>

    <!-- Glass highlight -->
    <path d="M -24 -30 C -6 -38, 6 -38, 24 -30
             C 26 -29, 25 -26, 22 -25
             C 8 -22, -8 -22, -22 -25
             C -25 -26, -26 -29, -24 -30 Z"
          fill="url(#gGlass)" opacity=".55" pointer-events="none"/>
  </g>
</svg>
